<?xml version="1.0" encoding="UTF-8" standalone="no"?>
<svg
   xmlns:dc="http://purl.org/dc/elements/1.1/"
   xmlns:cc="http://creativecommons.org/ns#"
   xmlns:rdf="http://www.w3.org/1999/02/22-rdf-syntax-ns#"
   xmlns:svg="http://www.w3.org/2000/svg"
   xmlns="http://www.w3.org/2000/svg"
   xmlns:sodipodi="http://sodipodi.sourceforge.net/DTD/sodipodi-0.dtd"
   xmlns:inkscape="http://www.inkscape.org/namespaces/inkscape"
   version="1.1"
   id="Layer_1"
   x="0px"
   y="0px"
   viewBox="0 0 512 512"
   style="enable-background:new 0 0 512 512;"
   xml:space="preserve"
   sodipodi:docname="FUNDASTORE-icon.svg"
   inkscape:version="1.0.2 (e86c870879, 2021-01-15, custom)"><metadata
   id="metadata61"><rdf:RDF><cc:Work
       rdf:about=""><dc:format>image/svg+xml</dc:format><dc:type
         rdf:resource="http://purl.org/dc/dcmitype/StillImage" /><dc:title></dc:title></cc:Work></rdf:RDF></metadata><defs
   id="defs59" /><sodipodi:namedview
   pagecolor="#ffffff"
   bordercolor="#666666"
   borderopacity="1"
   objecttolerance="10"
   gridtolerance="10"
   guidetolerance="10"
   inkscape:pageopacity="0"
   inkscape:pageshadow="2"
   inkscape:window-width="1920"
   inkscape:window-height="1013"
   id="namedview57"
   showgrid="false"
   inkscape:zoom="1.1628592"
   inkscape:cx="122.25461"
   inkscape:cy="207.20901"
   inkscape:window-x="-9"
   inkscape:window-y="-9"
   inkscape:window-maximized="1"
   inkscape:current-layer="Layer_1" />
<path
   style="fill:#736056;"
   d="M69.818,200.727c-4.466,0-8.932-1.705-12.34-5.114c-6.818-6.812-6.818-17.869,0-24.682  L208.751,19.659c6.818-6.818,17.864-6.818,24.682,0c6.818,6.812,6.818,17.869,0,24.682L82.16,195.613  C78.75,199.023,74.284,200.727,69.818,200.727z"
   id="path2" />
<path
   style="fill:#665247;"
   d="M442.182,200.727c-4.466,0-8.932-1.705-12.34-5.114L278.569,44.341  c-6.818-6.812-6.818-17.869,0-24.682c6.818-6.818,17.864-6.818,24.682,0l151.273,151.273c6.818,6.812,6.818,17.869,0,24.682  C451.114,199.023,446.648,200.727,442.182,200.727z"
   id="path4" />
<path
   style="fill:#E6563A;"
   d="M25.94,229.818l33.435,223.88c4.227,25.352,25.949,43.756,51.654,43.756h295.056  c25.886,0,48.176-19.323,51.841-44.961l28.483-222.676H25.94z"
   id="path6" />
<path
   style="fill:#D9472B;"
   d="M256,497.455h150.085c25.886,0,48.176-19.323,51.841-44.961l28.483-222.676H256V497.455z"
   id="path8" />
<g
   id="g14">
	<path
   style="fill:#D7EBFF;"
   d="M17.455,229.818C7.83,229.818,0,221.988,0,212.364v-34.909C0,167.83,7.83,160,17.455,160h477.091   c9.624,0,17.455,7.83,17.455,17.455v34.909c0,9.624-7.83,17.455-17.455,17.455H17.455z"
   id="path10" />
	<path
   style="fill:#D7EBFF;"
   d="M151.273,427.637c-9.642,0-17.455-7.813-17.455-17.455V305.455c0-9.642,7.813-17.455,17.455-17.455   c9.642,0,17.455,7.813,17.455,17.455v104.727C168.727,419.824,160.915,427.637,151.273,427.637z"
   id="path12" />
</g>
<path
   style="fill:#BDDEFF;"
   d="M360.727,427.637c-9.642,0-17.455-7.813-17.455-17.455V305.455c0-9.642,7.813-17.455,17.455-17.455  s17.455,7.813,17.455,17.455v104.727C378.182,419.824,370.369,427.637,360.727,427.637z"
   id="path16" />
<path
   style="fill:#D7EBFF;"
   d="M256,427.637c-9.642,0-17.455-7.813-17.455-17.455V305.455c0-9.642,7.813-17.455,17.455-17.455  c9.642,0,17.455,7.813,17.455,17.455v104.727C273.455,419.824,265.642,427.637,256,427.637z"
   id="path18" />
<g
   id="g24">
	<path
   style="fill:#BDDEFF;"
   d="M273.455,410.182V305.455c0-9.642-7.813-17.455-17.455-17.455v139.636   C265.642,427.637,273.455,419.824,273.455,410.182z"
   id="path20" />
	<path
   style="fill:#BDDEFF;"
   d="M494.545,160H256v69.818h238.545c9.624,0,17.455-7.83,17.455-17.455v-34.909   C512,167.83,504.17,160,494.545,160z"
   id="path22" />
</g>
<g
   id="g26">
</g>
<g
   id="g28">
</g>
<g
   id="g30">
</g>
<g
   id="g32">
</g>
<g
   id="g34">
</g>
<g
   id="g36">
</g>
<g
   id="g38">
</g>
<g
   id="g40">
</g>
<g
   id="g42">
</g>
<g
   id="g44">
</g>
<g
   id="g46">
</g>
<g
   id="g48">
</g>
<g
   id="g50">
</g>
<g
   id="g52">
</g>
<g
   id="g54">
</g>
<path
   style="fill:#000080;stroke-width:0.608076"
   d="m 256,462.44181 v -34.66034 h 1.71591 c 5.1196,0 11.41397,-4.241 14.0998,-9.50011 l 1.51446,-2.96545 0.16133,-56.51813 c 0.1842,-64.53018 0.50792,-60.2506 -4.97198,-65.7305 -3.17296,-3.17296 -7.31169,-5.14329 -10.80361,-5.14329 H 256 v -28.88361 -28.88361 h 114.92637 c 106.30412,0 114.92636,0.0751 114.92636,1.00137 0,0.55075 -6.43288,51.28909 -14.29529,112.75186 -9.92463,77.5838 -14.68579,113.01955 -15.57254,115.90125 -5.87572,19.09453 -21.81504,33.15796 -41.54076,36.65181 -2.39653,0.42448 -29.60468,0.63908 -81.02613,0.63908 H 256 Z m 110.79465,-35.60546 c 3.52694,-1.20174 7.32033,-4.44093 9.45667,-8.07505 l 1.66792,-2.83731 v -58.07126 c 0,-65.12436 0.38675,-59.53692 -4.47555,-64.6596 -3.39002,-3.57156 -6.32056,-4.8306 -11.9425,-5.13082 -4.58233,-0.24471 -5.09236,-0.14133 -8.78947,1.78153 -4.58567,2.385 -7.4579,5.76137 -8.82915,10.37887 -1.37786,4.63976 -1.3977,110.55346 -0.0216,115.18737 2.83748,9.55483 13.22992,14.73267 22.93366,11.42627 z"
   id="path63" /><path
   style="fill:#008080;stroke-width:0.608076"
   d="M 102.18543,496.41023 C 97.049789,495.55875 89.245473,492.6532 84.463732,489.81242 79.677258,486.96882 72.278518,480.26306 69.000466,475.79747 65.750372,471.36995 62.107428,463.62256 60.806517,458.37151 60.159722,455.76077 52.234494,403.9601 43.1949,343.25891 34.155306,282.55772 26.61636,232.27743 26.441687,231.52494 l -0.317589,-1.36817 H 141.06205 256 v 28.88361 28.88361 h -1.71591 c -3.48565,0 -7.63085,1.97053 -10.78931,5.12899 -5.46234,5.46234 -5.12982,1.23948 -5.12304,65.06009 l 0.006,55.98669 1.41989,3.04038 c 0.78094,1.67221 2.20309,3.9681 3.16031,5.10198 2.05328,2.43219 8.25862,5.53819 11.06587,5.53887 L 256,427.78147 v 34.66034 34.66033 l -75.24941,-0.0711 c -41.60552,-0.0393 -76.73187,-0.31687 -78.56516,-0.62082 z m 57.80801,-70.86589 c 3.94528,-2.21629 6.86982,-5.83835 8.12399,-10.06159 1.39582,-4.70024 1.39582,-110.55979 0,-115.26004 -1.37125,-4.6175 -4.24348,-7.99387 -8.82915,-10.37887 -3.69711,-1.92286 -4.20714,-2.02624 -8.78947,-1.78153 -5.78951,0.30917 -8.67759,1.59938 -12.24614,5.47079 -4.80996,5.2182 -4.53276,1.05352 -4.3419,65.23175 l 0.16999,57.15914 1.66792,2.83731 c 0.91736,1.56052 2.80143,3.80754 4.18682,4.99339 3.60637,3.08692 6.63875,4.03918 12.15296,3.81642 3.81534,-0.15412 5.20627,-0.51075 7.90498,-2.02677 z"
   id="path65" /></svg>
