<?xml version="1.0" encoding="UTF-8" standalone="no"?>
<svg
   xmlns:dc="http://purl.org/dc/elements/1.1/"
   xmlns:cc="http://creativecommons.org/ns#"
   xmlns:rdf="http://www.w3.org/1999/02/22-rdf-syntax-ns#"
   xmlns:svg="http://www.w3.org/2000/svg"
   xmlns="http://www.w3.org/2000/svg"
   xmlns:sodipodi="http://sodipodi.sourceforge.net/DTD/sodipodi-0.dtd"
   xmlns:inkscape="http://www.inkscape.org/namespaces/inkscape"
   version="1.1"
   id="Layer_1"
   x="0px"
   y="0px"
   viewBox="0 0 4096 512"
   xml:space="preserve"
   sodipodi:docname="FUNDASTORE-logo.svg"
   inkscape:version="1.0.2 (e86c870879, 2021-01-15, custom)"
   width="4096"
   height="512"><metadata
   id="metadata61"><rdf:RDF><cc:Work
       rdf:about=""><dc:format>image/svg+xml</dc:format><dc:type
         rdf:resource="http://purl.org/dc/dcmitype/StillImage" /><dc:title></dc:title></cc:Work></rdf:RDF></metadata><defs
   id="defs59"><rect
     x="87.562945"
     y="24.32304"
     width="4207.8861"
     height="603.2114"
     id="rect81" /><rect
     x="593.48218"
     y="14.593824"
     width="2339.8765"
     height="525.37769"
     id="rect69" /></defs><sodipodi:namedview
   pagecolor="#ffffff"
   bordercolor="#666666"
   borderopacity="1"
   objecttolerance="10"
   gridtolerance="10"
   guidetolerance="10"
   inkscape:pageopacity="0"
   inkscape:pageshadow="2"
   inkscape:window-width="1920"
   inkscape:window-height="1013"
   id="namedview57"
   showgrid="false"
   inkscape:zoom="0.20556641"
   inkscape:cx="737.34289"
   inkscape:cy="521.20675"
   inkscape:window-x="-9"
   inkscape:window-y="-9"
   inkscape:window-maximized="1"
   inkscape:current-layer="Layer_1" />
<path
   style="fill:#736056"
   d="m 1937.8275,200.727 c -4.466,0 -8.932,-1.705 -12.34,-5.114 -6.818,-6.812 -6.818,-17.869 0,-24.682 l 151.273,-151.272 c 6.818,-6.818 17.864,-6.818 24.682,0 6.818,6.812 6.818,17.869 0,24.682 l -151.273,151.272 c -3.41,3.41 -7.876,5.114 -12.342,5.114 z"
   id="path2" />
<path
   style="fill:#665247"
   d="m 2310.1915,200.727 c -4.466,0 -8.932,-1.705 -12.34,-5.114 L 2146.5785,44.341 c -6.818,-6.812 -6.818,-17.869 0,-24.682 6.818,-6.818 17.864,-6.818 24.682,0 l 151.273,151.273 c 6.818,6.812 6.818,17.869 0,24.682 -3.41,3.409 -7.876,5.113 -12.342,5.113 z"
   id="path4" />
<path
   style="fill:#e6563a"
   d="m 1893.9495,229.818 33.435,223.88 c 4.227,25.352 25.949,43.756 51.654,43.756 h 295.056 c 25.886,0 48.176,-19.323 51.841,-44.961 l 28.483,-222.676 h -460.469 z"
   id="path6" />
<path
   style="fill:#d9472b"
   d="m 2124.0095,497.455 h 150.085 c 25.886,0 48.176,-19.323 51.841,-44.961 l 28.483,-222.676 h -230.409 z"
   id="path8" />
<g
   id="g14"
   transform="translate(1868.0095)">
	<path
   style="fill:#d7ebff"
   d="M 17.455,229.818 C 7.83,229.818 0,221.988 0,212.364 V 177.455 C 0,167.83 7.83,160 17.455,160 h 477.091 c 9.624,0 17.455,7.83 17.455,17.455 v 34.909 c 0,9.624 -7.83,17.455 -17.455,17.455 H 17.455 Z"
   id="path10" />
	<path
   style="fill:#d7ebff"
   d="m 151.273,427.637 c -9.642,0 -17.455,-7.813 -17.455,-17.455 V 305.455 c 0,-9.642 7.813,-17.455 17.455,-17.455 9.642,0 17.455,7.813 17.455,17.455 v 104.727 c -0.001,9.642 -7.813,17.455 -17.455,17.455 z"
   id="path12" />
</g>
<path
   style="fill:#bddeff"
   d="m 2228.7365,427.637 c -9.642,0 -17.455,-7.813 -17.455,-17.455 V 305.455 c 0,-9.642 7.813,-17.455 17.455,-17.455 9.642,0 17.455,7.813 17.455,17.455 v 104.727 c 0,9.642 -7.813,17.455 -17.455,17.455 z"
   id="path16" />
<path
   style="fill:#d7ebff"
   d="m 2124.0095,427.637 c -9.642,0 -17.455,-7.813 -17.455,-17.455 V 305.455 c 0,-9.642 7.813,-17.455 17.455,-17.455 9.642,0 17.455,7.813 17.455,17.455 v 104.727 c 0,9.642 -7.813,17.455 -17.455,17.455 z"
   id="path18" />
<g
   id="g24"
   transform="translate(1868.0095)">
	<path
   style="fill:#bddeff"
   d="M 273.455,410.182 V 305.455 C 273.455,295.813 265.642,288 256,288 v 139.636 c 9.642,10e-4 17.455,-7.812 17.455,-17.454 z"
   id="path20" />
	<path
   style="fill:#bddeff"
   d="M 494.545,160 H 256 v 69.818 h 238.545 c 9.624,0 17.455,-7.83 17.455,-17.455 V 177.454 C 512,167.83 504.17,160 494.545,160 Z"
   id="path22" />
</g>
<g
   id="g26">
</g>
<g
   id="g28">
</g>
<g
   id="g30">
</g>
<g
   id="g32">
</g>
<g
   id="g34">
</g>
<g
   id="g36">
</g>
<g
   id="g38">
</g>
<g
   id="g40">
</g>
<g
   id="g42">
</g>
<g
   id="g44">
</g>
<g
   id="g46">
</g>
<g
   id="g48">
</g>
<g
   id="g50">
</g>
<g
   id="g52">
</g>
<g
   id="g54">
</g>
<path
   style="fill:#000080;stroke-width:0.608076"
   d="m 2124.0095,462.44181 v -34.66034 h 1.7159 c 5.1196,0 11.414,-4.241 14.0998,-9.50011 l 1.5145,-2.96545 0.1613,-56.51813 c 0.1842,-64.53018 0.5079,-60.2506 -4.972,-65.7305 -3.1729,-3.17296 -7.3116,-5.14329 -10.8036,-5.14329 h -1.7159 v -28.88361 -28.88361 h 114.9264 c 106.3041,0 114.9264,0.0751 114.9264,1.00137 0,0.55075 -6.4329,51.28909 -14.2953,112.75186 -9.9247,77.5838 -14.6858,113.01955 -15.5726,115.90125 -5.8757,19.09453 -21.815,33.15796 -41.5407,36.65181 -2.3966,0.42448 -29.6047,0.63908 -81.0262,0.63908 h -77.418 z m 110.7947,-35.60546 c 3.5269,-1.20174 7.3203,-4.44093 9.4566,-8.07505 l 1.668,-2.83731 v -58.07126 c 0,-65.12436 0.3867,-59.53692 -4.4756,-64.6596 -3.39,-3.57156 -6.3205,-4.8306 -11.9425,-5.13082 -4.5823,-0.24471 -5.0923,-0.14133 -8.7895,1.78153 -4.5856,2.385 -7.4579,5.76137 -8.8291,10.37887 -1.3779,4.63976 -1.3977,110.55346 -0.022,115.18737 2.8375,9.55483 13.2299,14.73267 22.9337,11.42627 z"
   id="path63" /><path
   style="fill:#008080;stroke-width:0.608076"
   d="m 1970.195,496.41023 c -5.1357,-0.85148 -12.94,-3.75703 -17.7217,-6.59781 -4.7865,-2.8436 -12.1853,-9.54936 -15.4633,-14.01495 -3.2501,-4.42752 -6.893,-12.17491 -8.194,-17.42596 -0.6468,-2.61074 -8.572,-54.41141 -17.6116,-115.1126 -9.0396,-60.70119 -16.5785,-110.98148 -16.7532,-111.73397 l -0.3176,-1.36817 h 114.938 114.9379 v 28.88361 28.88361 h -1.7159 c -3.4856,0 -7.6308,1.97053 -10.7893,5.12899 -5.4623,5.46234 -5.1298,1.23948 -5.123,65.06009 l 0.01,55.98669 1.4199,3.04038 c 0.7809,1.67221 2.203,3.9681 3.1603,5.10198 2.0532,2.43219 8.2586,5.53819 11.0658,5.53887 l 1.9762,4.8e-4 v 34.66034 34.66033 l -75.2494,-0.0711 c -41.6055,-0.0393 -76.7319,-0.31687 -78.5651,-0.62082 z m 57.808,-70.86589 c 3.9452,-2.21629 6.8698,-5.83835 8.124,-10.06159 1.3958,-4.70024 1.3958,-110.55979 0,-115.26004 -1.3713,-4.6175 -4.2435,-7.99387 -8.8292,-10.37887 -3.6971,-1.92286 -4.2071,-2.02624 -8.7895,-1.78153 -5.7895,0.30917 -8.6776,1.59938 -12.2461,5.47079 -4.81,5.2182 -4.5328,1.05352 -4.3419,65.23175 l 0.17,57.15914 1.6679,2.83731 c 0.9174,1.56052 2.8014,3.80754 4.1868,4.99339 3.6064,3.08692 6.6388,4.03918 12.153,3.81642 3.8153,-0.15412 5.2063,-0.51075 7.905,-2.02677 z"
   id="path65" /><text
   xml:space="preserve"
   id="text79"
   style="font-weight:bold;font-size:512px;line-height:1.25;font-family:'Century Gothic';-inkscape-font-specification:'Century Gothic Bold';white-space:pre;shape-inside:url(#rect81);fill:#000080;"
   transform="translate(63.239934,-34.05226)"><tspan
     x="87.5625"
     y="489.15407"><tspan
       style="font-style:normal;font-variant:normal;font-weight:normal;font-stretch:normal;font-size:512px;font-family:'Century Gothic';-inkscape-font-specification:'Century Gothic';fill:#000080">FUNDA    </tspan><tspan
       style="fill:#008080">STORE</tspan></tspan></text></svg>
